<svg id="Layer_1" data-name="Layer 1" xmlns="http://www.w3.org/2000/svg" viewBox="0 0 134.98 85.52"><defs><style>.cls-1{fill:#231f20;}</style></defs><title>Wooba</title><path class="cls-1" d="M23,52.37,17.57,64,11.13,47l-.4-1L9.42,43h8.24l3.81,10.07L26.74,42.4,32,52.79l2.91-7.51c.13-.35.3-.91.52-1.69a2.86,2.86,0,0,1,.35-.92.49.49,0,0,1,.38-.16.52.52,0,0,1,.38.15.44.44,0,0,1,.16.36,3.68,3.68,0,0,1-.26.95l-7.5,20Z"/><path class="cls-1" d="M47.9,42.42A10.62,10.62,0,0,1,53,43.75a9.56,9.56,0,0,1,3.86,3.81,10.51,10.51,0,0,1,1.38,5.16A10.13,10.13,0,0,1,57.69,56a10.73,10.73,0,0,1-1.44,2.8A11.07,11.07,0,0,1,54.08,61a10.06,10.06,0,0,1-2.89,1.51A10.27,10.27,0,0,1,47.9,63a9.64,9.64,0,0,1-4.14-.88A10.44,10.44,0,0,1,40.62,60a10.76,10.76,0,0,1-2-2.83,10.28,10.28,0,0,1-1-4.46A10.42,10.42,0,0,1,39,47.56a9.48,9.48,0,0,1,3.85-3.81A10.49,10.49,0,0,1,47.9,42.42Zm-1.18,19.7a8.61,8.61,0,0,0,1.09.08,9.11,9.11,0,0,0,3.74-.74,10.2,10.2,0,0,0,2.9-1.93,9.58,9.58,0,0,0,2.07-2.94,8.85,8.85,0,0,0,.84-3.87,9.19,9.19,0,0,0-.92-4,9.85,9.85,0,0,0-1.76-2.55,9.33,9.33,0,0,0-6.86-2.88,6.36,6.36,0,0,0-1.1.09Z"/><path class="cls-1" d="M70.12,42.42a10.55,10.55,0,0,1,5.07,1.33,9.5,9.5,0,0,1,3.86,3.81,10.52,10.52,0,0,1,1.39,5.16A9.87,9.87,0,0,1,79.9,56a10.41,10.41,0,0,1-1.43,2.8A11.34,11.34,0,0,1,76.3,61a10.39,10.39,0,0,1-6.18,2A9.64,9.64,0,0,1,66,62.16a10.26,10.26,0,0,1-5.15-5,10.14,10.14,0,0,1-1-4.46,10.51,10.51,0,0,1,1.38-5.16,9.54,9.54,0,0,1,3.85-3.81A10.55,10.55,0,0,1,70.12,42.42Zm-1.18,19.7A8.61,8.61,0,0,0,70,62.2a9.11,9.11,0,0,0,3.74-.74,10.15,10.15,0,0,0,2.89-1.93,9.77,9.77,0,0,0,2.08-2.94,9,9,0,0,0,.83-3.87,9.19,9.19,0,0,0-.92-4,9.81,9.81,0,0,0-1.75-2.55,9.61,9.61,0,0,0-2.48-1.85,9.36,9.36,0,0,0-4.38-1,6.36,6.36,0,0,0-1.1.09Z"/><path class="cls-1" d="M82.94,43h9.53a20.94,20.94,0,0,1,2.89.15,8.92,8.92,0,0,1,2.43.7,6.85,6.85,0,0,1,2,1.41,5.83,5.83,0,0,1,1.32,1.94,5.68,5.68,0,0,1,.42,2.15,5.52,5.52,0,0,1-.42,2.17,4.65,4.65,0,0,1-1.15,1.65,4.7,4.7,0,0,1-1.33.81,4.56,4.56,0,0,1,1.55,1.47,3.78,3.78,0,0,1,.57,2,4.24,4.24,0,0,1-.35,1.73,5.21,5.21,0,0,1-.88,1.33,4.94,4.94,0,0,1-1.07.91,6,6,0,0,1-2,.78,11.68,11.68,0,0,1-2.5.2h-11c.09-1.23.13-2.29.13-3.19v-13C83.07,45.65,83,44.57,82.94,43Zm8.64,18.61c.73.07,1.35.11,1.85.11a11.34,11.34,0,0,0,3.27-.36,5.1,5.1,0,0,0,1.51-.79,4.06,4.06,0,0,0,1.17-1.31,3.52,3.52,0,0,0,.44-1.77,3.1,3.1,0,0,0-.66-1.92,3.43,3.43,0,0,0-1.65-1.24,5.7,5.7,0,0,1-1.26.16,3.27,3.27,0,0,1-1.86-.44.86.86,0,0,1-.39-.74.41.41,0,0,1,.09-.3.21.21,0,0,1,.16-.1.45.45,0,0,1,.23.08,3.86,3.86,0,0,0,2,.56,3.93,3.93,0,0,0,2.9-1.15,4.07,4.07,0,0,0,1.13-3,4.79,4.79,0,0,0-.54-2.3,5.51,5.51,0,0,0-1.52-1.76,7,7,0,0,0-2.28-1.15,11.32,11.32,0,0,0-3.21-.4c-.5,0-1,0-1.42.07Z"/><path class="cls-1" d="M113.66,41.51l10.42,18.65a17.29,17.29,0,0,0,1.48,2.28h-10l-1.45-2.79h-9.69L103,62.13a1.66,1.66,0,0,1-.28.41.35.35,0,0,1-.26.08.45.45,0,0,1-.34-.13.44.44,0,0,1-.13-.33,1.32,1.32,0,0,1,.21-.55l10.89-19ZM104.83,58.8h8.8a83.63,83.63,0,0,0-4.35-7.69Z"/><path d="M65.45,19.65l1.11-.3h0l1.08-.23,1.13-.18a16,16,0,0,1,1.69-.14c.71,0,1.42,0,2.12,0a7.45,7.45,0,0,1,1,.08A1.64,1.64,0,0,1,74,19a.62.62,0,0,1,.34.46,2.1,2.1,0,0,1,0,.5c0,.22,0,.44,0,.67,0,.72.11,1.43.2,2.15,0,.31.09.63.13.94s.09.6.14.9.09.56.13.84l.15.91c.06.33.12.65.17,1s.13.72.2,1.08.13.7.21,1c.1.51.2,1,.32,1.53s.26,1.1.4,1.66a.19.19,0,0,1,0,.07h.09c.18.48.36.95.54,1.44l.19-.1a9,9,0,0,1,.92-.48,2.1,2.1,0,0,1,.69-.2,1.06,1.06,0,0,1,.85.27,1.69,1.69,0,0,1,.35.49l0,.09.11.41s0,.08,0,.12a1.76,1.76,0,0,1-.12.76,2.61,2.61,0,0,1-.48.78,4.39,4.39,0,0,1-1,.86,7.4,7.4,0,0,1-1.56.73l-.1,0-1,.28h-.07a9.55,9.55,0,0,1-1.07.18,9.84,9.84,0,0,1-2,0,.59.59,0,0,0-.35.05c-.33.13-.67.27-1,.39l-1.35.46c-.46.14-.91.27-1.38.39L67.29,40a14.91,14.91,0,0,1-1.49.24,9.87,9.87,0,0,1-1.22.08A5.22,5.22,0,0,1,62.75,40a2.84,2.84,0,0,1-.74-.42,1.67,1.67,0,0,1-.42-.53l0-.05-.06-.22v-.12a1.06,1.06,0,0,1,.23-.69A1.81,1.81,0,0,1,63,37.27a3.17,3.17,0,0,1,.92.06l.09,0-.2-1.69L64,35.6v0l-.15-.85c-.09-.46-.18-.92-.29-1.38-.16-.69-.34-1.38-.51-2.08-.11-.41-.23-.83-.35-1.25-.18-.62-.37-1.23-.57-1.84s-.36-1.06-.56-1.58-.36-.93-.57-1.39a13.81,13.81,0,0,0-.72-1.44,5.37,5.37,0,0,0-.49-.75.4.4,0,0,1-.06-.44,1.2,1.2,0,0,1,.15-.24,2.27,2.27,0,0,1,.42-.4,7.72,7.72,0,0,1,1-.59A23.71,23.71,0,0,1,64,20.14l1.34-.46Zm1.26,14.83,1.11-.32v-.07c0-.26-.08-.52-.13-.77-.07-.41-.14-.81-.23-1.21s-.16-.77-.25-1.15-.14-.61-.22-.91c-.13-.53-.27-1.05-.41-1.58s-.28-1.06-.42-1.59l-.51-1.82-.55-2a10.87,10.87,0,0,0-.36-1.1,2.64,2.64,0,0,1-.15-.55.72.72,0,0,1,.13-.53,1.37,1.37,0,0,1,.28-.26,3.49,3.49,0,0,1,.73-.35l.46-.16a8.94,8.94,0,0,1,.88-.27c.42-.1.85-.19,1.28-.25s.75-.11,1.13-.15l1.17-.12,1.67-.17.45-.07s.06,0,.08,0a.57.57,0,0,0-.18,0c-.48,0-1,0-1.45,0s-1,.06-1.56.11l-1.18.16q-.42.06-.84.15c-.38.07-.76.15-1.13.24s-.69.18-1,.27l-.55.17c-.35.11-.71.23-1.06.36s-.53.19-.78.3L62,21.31a14.49,14.49,0,0,0-1.35.71,1.78,1.78,0,0,0-.38.28.49.49,0,0,0-.11.14.15.15,0,0,0,0,.19l.08.07.15.12c.1.11.2.21.29.32a6.66,6.66,0,0,1,.73,1.16,18.24,18.24,0,0,1,.92,2.13c.12.31.23.63.34.95s.21.61.3.92c.17.56.34,1.13.5,1.69.08.29.16.59.23.89s.16.61.23.92.14.59.21.89l.15.69.18.9c0,.25.09.5.13.75,0,.06,0,.12,0,.18.57-.24,1.15-.44,1.73-.63,0,0,0,0,0,0,0-.21-.08-.42-.13-.62-.08-.37-.16-.75-.26-1.12s-.25-1-.39-1.48c-.22-.85-.46-1.69-.72-2.53l-.45-1.47c-.15-.48-.3-.95-.46-1.43s-.24-.75-.37-1.13-.27-.79-.4-1.18l-.36-1a1.53,1.53,0,0,0-.21-.4,1.4,1.4,0,0,1-.12-.18.34.34,0,0,1,0-.42,1.22,1.22,0,0,1,.25-.2,5,5,0,0,1,.73-.37l.13-.05s0,0-.06.05a2.16,2.16,0,0,0-.4.27,1,1,0,0,0-.13.16.27.27,0,0,0,0,.33l.11.16a5.11,5.11,0,0,1,.47,1c.15.47.3.93.44,1.4s.31,1,.44,1.49c.28,1,.56,2,.83,3l.29,1.1.24,1c.09.35.18.7.26,1l.15.64c.07.27.13.53.18.79s.11.49.16.73S66.69,34.36,66.71,34.48Zm.22.53.35-.09.68-.18.65-.17,1.08-.26.53-.12.91-.2.57-.12,1.11-.22.54-.1,1.13-.19.87-.14.21,0,.49,1.6.38-.31A5,5,0,0,1,76,33.13l.48-.08,0-.14h-.08l-.75.05c-.79.06-1.58.17-2.37.3l-1.12.2-1.16.24L69.77,34,68,34.44l-1.38.42c-.42.12-.83.26-1.24.4l-1.19.41-.2.07a.59.59,0,0,0,.06.2l.27-.09.19,2.33a3.35,3.35,0,0,0,1.49.07c-.05-1-.13-1.93-.22-2.9l.44-.13c0,.51,0,1,.08,1.51s0,1,.07,1.5a3.56,3.56,0,0,0,.73-.09C67.1,37.1,67,36.06,66.93,35Zm12.8.6h0l0,0a3.13,3.13,0,0,0,.12-.68,1.47,1.47,0,0,0-.07-.59.75.75,0,0,0-.63-.55,1.25,1.25,0,0,0-.51,0,3.14,3.14,0,0,0-.78.27,8.68,8.68,0,0,0-1.08.59c-.37.23-.74.48-1.12.71-1,.63-2.07,1.21-3.14,1.77L70.7,38c-.36.18-.74.35-1.11.51l-.87.37c-.31.12-.61.23-.92.33a7,7,0,0,1-1.2.29l-.31,0a2.51,2.51,0,0,0,.54-.54,4.14,4.14,0,0,0,.41-.67h-.07l-.39.07a.27.27,0,0,0-.19.1,1.61,1.61,0,0,1-.38.31,13.26,13.26,0,0,1-1.38.78.09.09,0,0,1-.07,0l-.52,0-.06,0,.3-.12a8.21,8.21,0,0,0,1.42-.92L66,38.5h-.18l-.89,0a.15.15,0,0,0-.09,0q-.36.15-.75.27A4.57,4.57,0,0,1,63,39a2.15,2.15,0,0,1-.62,0,.14.14,0,0,1-.1,0l-.15-.19a.59.59,0,0,1,0-.6.87.87,0,0,1,.37-.39,1.31,1.31,0,0,1,.33-.12,2.51,2.51,0,0,1,.82-.06l.44,0s0,0,0-.06l-.24,0a2.7,2.7,0,0,0-1.2.06,1.34,1.34,0,0,0-.61.38,1,1,0,0,0,.1,1.47,1.72,1.72,0,0,0,.52.27,3.68,3.68,0,0,0,.75.14,10.48,10.48,0,0,0,1.94,0c.39,0,.77-.07,1.15-.13a8.59,8.59,0,0,0,1-.2q.61-.16,1.23-.39l1.13-.43,1-.43L72,37.67c.43-.2.87-.42,1.28-.66l2.47-1.45c.64-.37,1.28-.74,1.94-1.07a5.56,5.56,0,0,1,.88-.35,1.5,1.5,0,0,1,.51-.07.57.57,0,0,1,.52.35,1.43,1.43,0,0,1,.08.22,2.78,2.78,0,0,1,.07.57C79.74,35.35,79.74,35.48,79.73,35.61Zm-3.65-2.87c0-.09,0-.18-.08-.26-.13-.41-.23-.83-.33-1.25s-.16-.71-.24-1.06c0-.16-.07-.33-.1-.49l-.18-1c-.05-.25-.09-.5-.13-.75s-.11-.66-.16-1-.09-.59-.13-.89-.1-.7-.14-1.05-.1-.71-.14-1.07l-.15-1.3c0-.43-.09-.87-.14-1.3L74,20c0-.11-.07-.14-.17-.11a.72.72,0,0,0-.27.15l.12.84.12.79c0,.31.1.62.14.93l.12.8.15.94c0,.28.09.56.13.83s.11.68.16,1l.12.71.15.93.12.66c.06.33.11.67.17,1s.09.49.14.74.11.64.17,1c0,.18.07.36.11.54l.18,1a.24.24,0,0,1,0,.08Zm-3,5.39v0l.2,0a4.11,4.11,0,0,0,.7,0,9.8,9.8,0,0,0,1.52-.16,9.33,9.33,0,0,0,1.27-.29,2,2,0,0,0,.41-.15l-.09,0-.59.17c-.34.08-.69.14-1,.19a8.51,8.51,0,0,1-1.24.07,2.46,2.46,0,0,1-.6-.07l-.18-.06A1,1,0,0,1,73.12,38.13Z"/></svg>